<svg xmlns="http://www.w3.org/2000/svg" xmlns:xlink="http://www.w3.org/1999/xlink" width="73" height="61" viewBox="0 0 73 61">
    <defs>
        <path id="a" d="M0 .13v9.812h49.868V.131H0z"/>
        <path id="c" d="M.023 58.516h54.879V.127H.023z"/>
        <path id="e" d="M42.98.098H.066v39.88H42.98z"/>
    </defs>
    <g fill="none" fill-rule="evenodd">
        <path fill="#FEFEFE" d="M1 11h41.664c0-3.866 2.837-7 6.336-7H7.336C3.836 4 1 7.134 1 11"/>
        <g transform="translate(0 2)">
            <mask id="b" fill="#fff">
                <use xlink:href="#a"/>
            </mask>
            <path fill="#231F20" d="M2.37 7.609h39.995c.24-2.018 1.091-3.817 2.334-5.145H7.572c-2.584 0-4.741 2.22-5.201 5.145zm42.206 2.333H0V8.776C0 4.009 3.397.13 7.572.13h42.296v2.333c-2.918 0-5.292 2.832-5.292 6.312v1.166z" mask="url(#b)"/>
        </g>
        <path fill="#FEFEFE" d="M60 10.212C59.515 6.71 56.608 4 53.184 4H7c3.764 0 6.816 3.25 6.816 7.257v41.486c0 4.008 3.051 7.257 6.815 7.257H60V10.213z"/>
        <g transform="translate(7 2)">
            <mask id="d" fill="#fff">
                <use xlink:href="#c"/>
            </mask>
            <path fill="#231F20" d="M5.52 2.397a8.56 8.56 0 0 1 2.556 6.138v41.574c0 3.385 2.587 6.138 5.768 6.138h38.773V7.57c-.45-2.954-2.917-5.172-5.768-5.172H5.52zm49.382 56.12H13.844c-4.44 0-8.053-3.772-8.053-8.408V8.535c0-3.385-2.588-6.138-5.768-6.138V.127H46.85c4.01 0 7.466 3.097 8.042 7.204l.01.078v51.107z" mask="url(#d)"/>
        </g>
        <path fill="#FEFEFE" d="M72 52H26.863c0 3.866-3.072 7-6.863 7h45.136C68.927 59 72 55.866 72 52"/>
        <path fill="#231F20" d="M25.448 58.622H65.02c2.789 0 5.117-2.263 5.613-5.244H27.908c-.252 2.057-1.15 3.89-2.46 5.244M65.02 61H20v-2.378c3.149 0 5.71-2.886 5.71-6.433V51H73v1.19c0 4.857-3.58 8.81-7.98 8.81"/>
        <path fill="#FEFEFE" d="M33.652 37.176l7.37-1.78s1.646-4.128 3.566-5.66l-2.92-2.165 4.49.027S67.248 13.152 68.614 9.01c1.365-4.142 2.464-5.335-.468-6.466-2.932-1.13-12.6-7.001-31.7 15.162l-.81 5.577-1.31-3.783-1.82 4.55-.015 4.196-1.658-2.003L29 30.757 31.397 38l2.255-.824z"/>
        <g transform="translate(28)">
            <mask id="f" fill="#fff">
                <use xlink:href="#e"/>
            </mask>
            <path fill="#231F20" d="M2.415 31.524l1.889 5.855 1.109-.415a1.14 1.14 0 0 1 .127-.04l6.745-1.671c.434-1.022 1.42-3.154 2.675-4.68l-1.89-1.437c-.388-.295-.542-.8-.382-1.257a1.14 1.14 0 0 1 1.078-.758h.006l4.082.024c1.183-.839 5.7-4.064 10.288-7.634 9.488-7.385 11.03-9.793 11.252-10.485.23-.716.452-1.344.647-1.898.965-2.737.965-2.737-.449-3.296a21.006 21.006 0 0 1-.585-.246c-1.608-.696-4.6-1.992-9.257-.664C23.838 4.607 17.084 9.91 9.672 18.683l-.757 5.356a1.134 1.134 0 0 1-1.025.964 1.138 1.138 0 0 1-1.186-.764l-.295-.874-.588 1.509-.014 4.061a1.126 1.126 0 0 1-.766 1.059 1.15 1.15 0 0 1-1.266-.362l-.41-.508-.95 2.4zm1.168 8.453c-.17 0-.34-.037-.496-.112a1.13 1.13 0 0 1-.59-.671L.12 31.827a1.11 1.11 0 0 1 .024-.75l1.817-4.592c.149-.374.488-.642.892-.703.238-.035.476.005.684.109l.004-1.231c0-.137.026-.273.076-.4l1.806-4.629c.172-.442.61-.734 1.09-.72.299.007.576.128.778.328l.168-1.183c.029-.207.116-.402.251-.563C15.5 8.22 22.702 2.59 29.117.761c5.45-1.554 9.068.012 10.807.765.192.083.365.158.517.219 3.433 1.358 2.692 3.46 1.754 6.122-.19.54-.407 1.152-.627 1.838-.853 2.655-7.269 7.879-12.02 11.576a311.237 311.237 0 0 1-10.67 7.907 1.192 1.192 0 0 1-.668.208l-1.073-.006.22.168c.274.208.438.529.444.87.006.342-.146.667-.412.886-1.374 1.123-2.775 4.201-3.2 5.293a1.135 1.135 0 0 1-.786.688L6.16 39.09l-2.173.814c-.131.049-.268.073-.405.073z" mask="url(#f)"/>
        </g>
        <path fill="#231F20" d="M30.144 49a1.134 1.134 0 0 1-1.133-1.285l.002-.019c.308-2.38 3.747-23.748 29.212-40.507a1.15 1.15 0 0 1 1.584.317c.35.52.206 1.223-.32 1.57-10.566 6.953-18.5 15.504-23.583 25.415-3.666 7.148-4.497 12.494-4.627 13.493l-.005.038a1.14 1.14 0 0 1-1.13.978"/>
    </g>
</svg>
