<?xml version="1.0" encoding="UTF-8"?>
<svg width="101px" height="71px" viewBox="0 0 101 71" version="1.1" xmlns="http://www.w3.org/2000/svg" xmlns:xlink="http://www.w3.org/1999/xlink">
    <!-- Generator: Sketch 48.2 (47327) - http://www.bohemiancoding.com/sketch -->
    <title>Shape</title>
    <desc>Created with Sketch.</desc>
    <defs></defs>
    <g id="Page-1" stroke="none" stroke-width="1" fill="none" fill-rule="evenodd">
        <g id="media" fill="#000000">
            <path d="M95.1412754,4.79647125 C93.1216247,2.9717242 90.5638035,1.77499745 87.7663551,1.46735677 C81.68612,0.790015223 75.550752,0.449074598 69.395045,0.278134433 C63.2788392,0.108368237 57.1364233,0.108368237 51.0076444,0.11188551 C44.8797365,0.108368263 38.7377196,0.108368263 32.6207093,0.278134433 C26.4642975,0.449072612 20.3271144,0.790011914 14.2434152,1.46735677 C11.4486662,1.77515495 8.89194207,2.97242567 6.87414649,4.79796021 C4.86918333,6.61176831 3.39610087,9.04773349 2.75168048,11.8479268 C1.88171529,15.6014567 1.44162964,19.5177011 1.21930956,23.4582389 C0.996125123,27.4154597 0.99055,31.3225717 0.99055,35.1156024 C0.99055,38.9036036 0.99062853,42.8056267 1.20855094,46.7652232 C1.42545281,50.7039941 1.86019804,54.6200929 2.73062932,58.374278 C3.3789001,61.1756492 4.85268669,63.6123225 6.85749692,65.4260313 C8.87408905,67.2505467 11.4282932,68.4471147 14.2222443,68.7549142 C20.3067215,69.4321829 26.4438979,69.7731169 32.6003364,69.9439777 C38.7172469,70.1137439 44.8592904,70.1137439 50.9880693,70.1102266 C57.1195876,70.1137439 63.2615181,70.1137439 69.3775975,69.9439777 C75.533145,69.7731176 81.6685329,69.432179 87.7522986,68.7549142 C90.5457111,68.447116 93.0993701,67.2509372 95.1168465,65.426971 C97.1226741,63.6134012 98.5985025,61.1764897 99.2510147,58.3742912 C100.117602,54.6199804 100.552422,50.7038551 100.770114,46.7652365 C100.984896,42.8811736 100.986702,38.9409403 100.986388,35.1156156 L100.99055,35.1156156 L100.99055,34.9235738 L100.986388,34.9235738 C100.986545,27.3232184 100.986545,19.2733932 99.2721423,11.8480082 C98.6238715,9.04655754 97.148436,6.61011589 95.141272,4.79651955 L95.1412754,4.79647125 Z M37.3019509,50.2279346 L37.3019509,18.0167881 L37.3019509,16.2744174 L38.8561503,17.0820536 C43.563828,19.5284217 48.2579286,21.9663391 52.956258,24.4064535 C58.608422,27.3418716 64.2672749,30.2808896 69.9644056,33.2421892 L71.7707654,34.1811392 L69.9602434,35.1157877 L54.406149,43.1438409 C49.2289375,45.8153079 44.0515798,48.4860734 38.8519881,51.1667985 L37.3019509,51.9659178 L37.3019509,50.2279279 L37.3019509,50.2279346 Z" id="Shape"></path>
        </g>
    </g>
</svg>